# xmcd
#
# Track frame offsets:
#	300
#	15501
#	27033
#	40671
#	53303
#	69418
#	86993
#	95669
#	109017
#	124398
#	136520
#	147798
#	160644
#	169520
#	184632
#
# Disc length: 2599 seconds
#
# Revision: 0
# Processed by: cddbd v1.5.1PL2 Copyright (c) Steve Scherf et al.
# Submitted via: audiograbber 1.83.01
#
DISCID=b30a230f
DTITLE=JOHNNY CASH - CHARTBUSTER VOLUME 3
DYEAR=2006
DGENRE=Country
TTITLE0=JOHNNY CASH - IF I WERE A CARPENTER
TTITLE1=JOHNNY CASH - KATE
TTITLE2=JOHNNY CASH - ANY OLD WIND THAT BLOWS
TTITLE3=JOHNNY CASH - A THING CALLED LOVE
TTITLE4=JOHNNY CASH - THERE AIN'T NO GOOD CHAIN GANG
TTITLE5=JOHNNY CASH - GHOST RIDERS IN THE SKY
TTITLE6=JOHNNY CASH - COME IN STRANGERS
TTITLE7=JOHNNY CASH - GIVE MY LOVE TO ROSE
TTITLE8=JOHNNY CASH - RAGGED OLD FLAG
TTITLE9=JOHNNY CASH - CRY, CRY, CRY
TTITLE10=JOHNNY CASH - GET RHYTHM
TTITLE11=JOHNNY CASH - THANKS A LOT
TTITLE12=JOHNNY CASH - THE WRECK OF THE OLD '97
TTITLE13=JOHNNY CASH - ONEY
TTITLE14=JOHNNY CASH - SMILING BILL MCCALL
EXTD=
EXTT0=
EXTT1=
EXTT2=
EXTT3=
EXTT4=
EXTT5=
EXTT6=
EXTT7=
EXTT8=
EXTT9=
EXTT10=
EXTT11=
EXTT12=
EXTT13=
EXTT14=
PLAYORDER=
